{"accessors":[{"bufferView":0,"componentType":5125,"count":13320,"max":[3421.0],"min":[0.0],"type":"SCALAR"},{"bufferView":1,"componentType":5126,"count":3422,"max":[0.03499147295951843,0.09990989416837692,0.10000000149011612],"min":[-0.03499147295951843,-0.09990989416837692,-0.10000000149011612],"type":"VEC3"},{"bufferView":2,"componentType":5126,"count":3422,"max":[0.999756395816803,0.9990989565849304,1.0],"min":[-0.999756395816803,-0.9990989565849304,-1.0],"type":"VEC3"},{"bufferView":3,"componentType":5126,"count":3422,"max":[0.8773273825645447,0.9833752512931824],"min":[0.12267261743545532,0.016624748706817628],"type":"VEC2"},{"bufferView":4,"componentType":5125,"count":294,"max":[97.0],"min":[0.0],"type":"SCALAR"},{"bufferView":5,"componentType":5126,"count":98,"max":[1.1754943508222876e-38,0.046929918229579929,0.04697224497795105],"min":[-0.029999999329447748,-0.046929918229579929,-0.04697224497795105],"type":"VEC3"},{"bufferView":6,"componentType":5126,"count":98,"max":[1.1754943508222876e-38,1.1754943508222876e-38,1.1754943508222876e-38],"min":[-1.0,0.0,0.0],"type":"VEC3"},{"bufferView":7,"componentType":5126,"count":98,"max":[1.0,1.0],"min":[0.0,0.0],"type":"VEC2"},{"bufferView":8,"componentType":5125,"count":144,"max":[59.0],"min":[0.0],"type":"SCALAR"},{"bufferView":9,"componentType":5126,"count":60,"max":[0.029999999329447748,0.006000000052154064,0.006000000052154064],"min":[-0.029999999329447748,-0.006000000052154064,-0.006000000052154064],"type":"VEC3"},{"bufferView":10,"componentType":5126,"count":60,"max":[1.1754943508222876e-38,1.0,1.0],"min":[0.0,-1.0,-1.0],"type":"VEC3"},{"bufferView":11,"componentType":5126,"count":60,"max":[1.0,0.9330126643180847],"min":[0.0,0.06698733568191529],"type":"VEC2"},{"bufferView":12,"componentType":5125,"count":294,"max":[97.0],"min":[0.0],"type":"SCALAR"},{"bufferView":13,"componentType":5126,"count":98,"max":[0.029999999329447748,0.046929918229579929,0.04697224497795105],"min":[0.029999999329447748,-0.046929918229579929,-0.04697224497795105],"type":"VEC3"},{"bufferView":14,"componentType":5126,"count":98,"max":[1.0,1.1754943508222876e-38,1.1754943508222876e-38],"min":[1.0,0.0,0.0],"type":"VEC3"},{"bufferView":15,"componentType":5126,"count":98,"max":[1.0,1.0],"min":[0.0,0.0],"type":"VEC2"}],"asset":{"generator":"SimLab GLTF","version":"2.0"},"bufferViews":[{"buffer":0,"byteLength":53280,"target":34963},{"buffer":0,"byteLength":41064,"byteOffset":53280,"byteStride":12,"target":34962},{"buffer":0,"byteLength":41064,"byteOffset":94344,"byteStride":12,"target":34962},{"buffer":0,"byteLength":27376,"byteOffset":135408,"byteStride":8,"target":34962},{"buffer":0,"byteLength":1176,"byteOffset":162784,"target":34963},{"buffer":0,"byteLength":1176,"byteOffset":163960,"byteStride":12,"target":34962},{"buffer":0,"byteLength":1176,"byteOffset":165136,"byteStride":12,"target":34962},{"buffer":0,"byteLength":784,"byteOffset":166312,"byteStride":8,"target":34962},{"buffer":0,"byteLength":576,"byteOffset":167096,"target":34963},{"buffer":0,"byteLength":720,"byteOffset":167672,"byteStride":12,"target":34962},{"buffer":0,"byteLength":720,"byteOffset":168392,"byteStride":12,"target":34962},{"buffer":0,"byteLength":480,"byteOffset":169112,"byteStride":8,"target":34962},{"buffer":0,"byteLength":1176,"byteOffset":169592,"target":34963},{"buffer":0,"byteLength":1176,"byteOffset":170768,"byteStride":12,"target":34962},{"buffer":0,"byteLength":1176,"byteOffset":171944,"byteStride":12,"target":34962},{"buffer":0,"byteLength":784,"byteOffset":173120,"byteStride":8,"target":34962}],"buffers":[{"byteLength":173904,"uri":"wheel1.bin"}],"materials":[{"alphaMode":"MASK","doubleSided":true,"pbrMetallicRoughness":{"baseColorFactor":[0.501960813999176,0.501960813999176,0.501960813999176,1.0],"metallicFactor":0.0}},{"alphaMode":"MASK","doubleSided":true,"pbrMetallicRoughness":{"baseColorFactor":[0.0,0.7529411911964417,0.0,1.0],"metallicFactor":0.0}},{"alphaMode":"MASK","doubleSided":true,"pbrMetallicRoughness":{"baseColorFactor":[0.7921568751335144,0.8196078538894653,0.9333333373069763,1.0],"metallicFactor":0.0}},{"alphaMode":"MASK","doubleSided":true,"pbrMetallicRoughness":{"baseColorFactor":[0.0,0.7529411911964417,0.7529411911964417,1.0],"metallicFactor":0.0}}],"meshes":[{"primitives":[{"attributes":{"NORMAL":2,"POSITION":1,"TEXCOORD_0":3},"indices":0,"material":0,"mode":4}]},{"primitives":[{"attributes":{"NORMAL":6,"POSITION":5,"TEXCOORD_0":7},"indices":4,"material":1,"mode":4}]},{"primitives":[{"attributes":{"NORMAL":10,"POSITION":9,"TEXCOORD_0":11},"indices":8,"material":2,"mode":4}]},{"primitives":[{"attributes":{"NORMAL":14,"POSITION":13,"TEXCOORD_0":15},"indices":12,"material":3,"mode":4}]}],"nodes":[{"children":[1,2],"matrix":[1.0,0.0,0.0,0.0,0.0,4.4896593387466768e-11,-1.0,0.0,0.0,1.0,4.4896593387466768e-11,0.0,0.0,0.0,0.0,1.0]},{"name":"Camera~1","rotation":[-0.7071067690849304,0.0,0.0,-0.7071067690849304],"translation":[0.0,-0.800000011920929,0.0]},{"name":"Body_1","children":[3,4,5,6],"rotation":[0.0,0.0,0.0,-1.0]},{"name":"3DGeom~5","mesh":0,"rotation":[0.0,0.0,0.0,-1.0]},{"name":"3DGeom~6","mesh":1,"rotation":[0.0,0.0,0.0,-1.0]},{"name":"3DGeom~7","mesh":2,"rotation":[0.0,0.0,0.0,-1.0]},{"name":"3DGeom~8","mesh":3,"rotation":[0.0,0.0,0.0,-1.0]}],"samplers":[{"wrapS":10497,"wrapT":10497}],"scene":0,"scenes":[{"nodes":[0]}]}